<svg xmlns="http://www.w3.org/2000/svg" version="1.1" xmlns:xlink="http://www.w3.org/1999/xlink" width="512" height="512" x="0" y="0" viewBox="0 0 128 128" style="enable-background:new 0 0 512 512" xml:space="preserve" class=""><g><path d="M64.001 10.288C35.052 9.668 9.403 35.561 10.29 64.503l-.002 49.013c-.041 2.267 1.939 4.235 4.195 4.197a4.19 4.19 0 0 0 2.967-1.23l.82-.82c5.721-5.72 14.355-7.16 21.486-3.586 7.467 3.74 15.537 5.637 23.994 5.637h.053c28.75.582 54.211-24.404 53.906-53.185.874-29.177-24.491-54.845-53.708-54.241zm-.203 99.031h-.045c-7.141 0-13.949-1.598-20.234-4.748-7.879-3.953-17.143-3.737-24.838.424l.002-40.51v-.039c-.207-40.537 48.873-61.088 77.535-32.407 28.242 28.334 7.697 77.341-32.42 77.28z" fill="#000000" opacity="1" data-original="#000000"></path></g></svg>