<svg xmlns="http://www.w3.org/2000/svg" version="1.1" xmlns:xlink="http://www.w3.org/1999/xlink" width="512" height="512" x="0" y="0" viewBox="0 0 48 48" style="enable-background:new 0 0 512 512" xml:space="preserve" class="">
    <g>
        <path d="M35 27h-4c-1.63 0-3.14.56-4.33 1.51.55.39 1.05.86 1.48 1.38.81-.56 1.79-.89 2.85-.89h4c2.76 0 5 2.24 5 5v1c0 .55-.45 1-1 1h-9v1c0 .36-.1.71-.27 1H39c1.65 0 3-1.35 3-3v-1c0-3.86-3.14-7-7-7z" fill="#000000" opacity="1" data-original="#000000"></path><path d="M28 40H9c-1.654 0-3-1.346-3-3v-2c0-4.962 4.038-9 9-9h7c4.962 0 9 4.038 9 9v2c0 1.654-1.346 3-3 3zM15 28c-3.86 0-7 3.14-7 7v2c0 .551.449 1 1 1h19c.551 0 1-.449 1-1v-2c0-3.86-3.14-7-7-7zM19.009 25a6.17 6.17 0 0 1-.544-.023C15.401 24.71 13 21.97 13 18.74v-1.482c0-3.23 2.4-5.969 5.466-6.235a5.944 5.944 0 0 1 4.588 1.552A6.018 6.018 0 0 1 25 17v2c0 1.677-.71 3.29-1.946 4.424A5.935 5.935 0 0 1 19.009 25zm-.006-12c-.12 0-.242.005-.364.016-2.04.177-3.64 2.041-3.64 4.243v1.482c0 2.202 1.6 4.066 3.64 4.243a3.995 3.995 0 0 0 3.063-1.034A4.013 4.013 0 0 0 23 19v-2a4.012 4.012 0 0 0-1.298-2.95 3.96 3.96 0 0 0-2.7-1.05zM32.504 25a4.45 4.45 0 0 1-.41-.019C29.798 24.767 28 22.604 28 20.056v-1.112c0-2.547 1.798-4.711 4.094-4.925a4.323 4.323 0 0 1 3.345 1.134c.992.903 1.56 2.214 1.56 3.597v1.5c0 1.383-.568 2.694-1.56 3.597A4.326 4.326 0 0 1 32.504 25zm-.006-9c-.073 0-.145.003-.219.01-1.278.12-2.279 1.408-2.279 2.934v1.112c0 1.526 1.001 2.815 2.28 2.934.664.06 1.305-.16 1.813-.621.576-.526.907-1.298.907-2.119v-1.5c0-.821-.33-1.593-.907-2.119A2.355 2.355 0 0 0 32.498 16z" fill="#000000" opacity="1" data-original="#000000">
        </path>
    </g>
</svg>