<svg xmlns="http://www.w3.org/2000/svg" version="1.1" xmlns:xlink="http://www.w3.org/1999/xlink" width="512" height="512" x="0" y="0" viewBox="0 0 48 48" style="enable-background:new 0 0 512 512" xml:space="preserve" class="">
    <g>
        <path d="M35 44h-5c-1.654 0-3-1.346-3-3v-9c0-.551-.449-1-1-1h-4c-.551 0-1 .449-1 1v9c0 1.654-1.346 3-3 3h-5c-1.654 0-3-1.346-3-3V25H6.504c-.823 0-1.552-.494-1.857-1.259s-.117-1.625.48-2.191L22.623 4.93a2 2 0 0 1 2.755 0l17.496 16.62c.597.566.785 1.427.48 2.191S42.32 25 41.496 25H38v16c0 1.654-1.346 3-3 3zM22 29h4c1.654 0 3 1.346 3 3v9c0 .551.449 1 1 1h5c.551 0 1-.449 1-1V25c0-1.103.897-2 2-2h3.496L24 6.38l-.689-.726.689.725L6.505 23H10c1.103 0 2 .897 2 2v16c0 .551.449 1 1 1h5c.551 0 1-.449 1-1v-9c0-1.654 1.346-3 3-3z" fill="#000000" opacity="1" data-original="#000000" class="">
        </path>
    </g>
</svg>