<svg xmlns="http://www.w3.org/2000/svg" version="1.1" xmlns:xlink="http://www.w3.org/1999/xlink" width="512" height="512" x="0" y="0" viewBox="0 0 32 32" style="enable-background:new 0 0 512 512" xml:space="preserve" class=""><g><path d="M29.98 12.018A2.77 2.77 0 0 0 27.83 11h-7.643a.187.187 0 0 1-.187-.186v-4.39a3.416 3.416 0 0 0-1.22-2.62 3.436 3.436 0 0 0-2.808-.752c-1.116.194-2.078.973-2.571 2.085l-2.097 4.715A3.618 3.618 0 0 1 8 12H3.365A2.368 2.368 0 0 0 1 14.365v11.27A2.368 2.368 0 0 0 3.365 28h4.472l.257.085A17.79 17.79 0 0 0 13.73 29h11.955c1.238 0 2.312-.88 2.556-2.109l2.314-12.566a2.767 2.767 0 0 0-.575-2.307zM7 26H3.365A.365.365 0 0 1 3 25.635v-11.27c0-.201.164-.365.365-.365H7zm21.59-12.053-2.313 12.568a.606.606 0 0 1-.592.485H13.73c-1.609 0-3.197-.252-4.73-.733V13.9a5.613 5.613 0 0 0 4.132-3.235l2.097-4.716c.218-.493.634-.848 1.084-.926A1.426 1.426 0 0 1 18 6.424v4.39c0 1.205.98 2.186 2.187 2.186h7.642a.78.78 0 0 1 .762.947z" fill="#000000" opacity="1" data-original="#000000"></path></g></svg>