<svg xmlns="http://www.w3.org/2000/svg" version="1.1" xmlns:xlink="http://www.w3.org/1999/xlink" width="512" height="512" x="0" y="0" viewBox="0 0 511 511.999" style="enable-background:new 0 0 512 512" xml:space="preserve" class=""><g><path d="M95.863 512c-7.46 0-14.89-2.055-21.508-6.148-12.16-7.512-19.414-20.532-19.414-34.829v-60C12.125 356.777-6.379 289.035 2.797 219.52 17.507 107.988 109.176 16.574 220.747 2.172 299.331-7.98 376.472 17.777 432.472 72.8c56.004 55.023 83.101 131.644 74.359 210.226-12.668 113.805-104.566 207.43-218.5 222.63-45.422 6.023-91.36-.266-133.504-18.317l-40.629 20.3c-5.82 2.907-12.094 4.36-18.336 4.36zM225.387 38.168C129.847 50.5 51.359 128.766 38.754 224.266c-8.121 61.597 9.02 121.527 48.277 168.722a18.16 18.16 0 0 1 4.188 11.602v66.433c0 2.141 1.207 3.329 2.207 3.97 1.027.616 2.648 1.148 4.554.19l48.325-24.144a18.106 18.106 0 0 1 15.82-.195c38.02 17.84 79.984 24.36 121.402 18.851 97.649-13.023 176.391-93.218 187.25-190.672 7.504-67.441-15.73-133.183-63.738-180.34-48-47.175-114.207-69.25-181.652-60.515zm-2.32-18h.175zm0 0" fill="#000000" opacity="1" data-original="#000000" class=""></path><path d="m128.398 311.344 83.274-118.52c3.469-6.07 11.469-7.722 17.058-3.531l55.786 41.836a11.618 11.618 0 0 0 12.949.668l67.93-48.016c9.968-5.98 21.566 4.762 16.37 15.16l-67.25 116.356c-3.027 6.055-10.566 8.25-16.37 4.765l-74.473-44.683a11.622 11.622 0 0 0-11.176-.43l-68.816 52.547c-10.278 5.145-20.985-6.172-15.282-16.152zm0 0" fill="#000000" opacity="1" data-original="#000000" class=""></path></g></svg>