<svg xmlns="http://www.w3.org/2000/svg" version="1.1" xmlns:xlink="http://www.w3.org/1999/xlink" width="512" height="512" x="0" y="0" viewBox="0 0 48 48" style="enable-background:new 0 0 512 512" xml:space="preserve" class=""><g><path d="M20 34a13.944 13.944 0 0 1-9.471-3.698A14.012 14.012 0 0 1 6 20c0-7.72 6.28-14 14-14s14 6.28 14 14c0 3.908-1.651 7.663-4.53 10.303A13.943 13.943 0 0 1 20 34zm0-26C13.383 8 8 13.383 8 20a12.01 12.01 0 0 0 3.882 8.83C14.102 30.875 16.985 32 20 32s5.897-1.125 8.117-3.169A12.012 12.012 0 0 0 32 20c0-6.617-5.383-12-12-12z" fill="#000000" opacity="1" data-original="#000000"></path><path d="M38.586 41.414 28.473 29.887c-.813-.92.497-2.229 1.414-1.414l11.527 10.113c2.05 1.924-.897 4.88-2.828 2.828z" fill="#000000" opacity="1" data-original="#000000"></path></g></svg>