<svg xmlns="http://www.w3.org/2000/svg" version="1.1" xmlns:xlink="http://www.w3.org/1999/xlink" width="512" height="512" x="0" y="0" viewBox="0 0 48 48" style="enable-background:new 0 0 512 512" xml:space="preserve" class=""><g><path d="M9 40a1 1 0 0 1-.999-.947c-.01-.197-.816-19.298 15.999-21.926V11a1 1 0 0 1 1.68-.733l14 13a1.002 1.002 0 0 1 0 1.466l-14 13A1 1 0 0 1 24 37v-6.034h-.017c-2.79 0-10.965.682-14.054 8.406A1 1 0 0 1 9 40zm17-26.707V18a1 1 0 0 1-.883.993c-11.27 1.326-14.176 10.479-14.9 15.925 5.298-6.618 14.756-5.923 14.866-5.915A1 1 0 0 1 26 30v4.707L37.53 24zM25 18h.01z" fill="#000000" opacity="1" data-original="#000000"></path></g></svg>