<svg xmlns="http://www.w3.org/2000/svg" version="1.1" xmlns:xlink="http://www.w3.org/1999/xlink" width="512" height="512" x="0" y="0" viewBox="0 0 48 48" style="enable-background:new 0 0 512 512" xml:space="preserve" class=""><g><linearGradient id="a" x1="24" x2="24" y1="42.11" y2="5.89" gradientUnits="userSpaceOnUse"><stop offset=".006" stop-color="#00b4ff"></stop><stop offset="1" stop-color="#1367ce"></stop></linearGradient><circle cx="24" cy="24" r="15.684" fill="#f2f4f8" opacity="1" data-original="#f2f4f8" class=""></circle><path fill="url(#a)" d="M24 42.11c-9.986 0-18.11-8.124-18.11-18.11 0-2.354.444-4.629 1.32-6.76a2 2 0 0 1 3.7 1.521A13.714 13.714 0 0 0 9.89 24c0 7.78 6.33 14.11 14.11 14.11S38.11 31.78 38.11 24 31.78 9.89 24 9.89c-3.714 0-7.22 1.433-9.868 4.037a2 2 0 0 1-2.804-2.854A17.977 17.977 0 0 1 24 5.89c9.986 0 18.11 8.124 18.11 18.11S33.986 42.11 24 42.11z" opacity="1" data-original="url(#a)" class=""></path><path fill="#1367ce" d="M18.92 18.38c-.15.38-.52.62-.92.62H7c-.55 0-1-.45-1-1V7c0-.4.24-.77.62-.92.37-.16.8-.07 1.09.21l11 11c.28.29.37.72.21 1.09z" opacity="1" data-original="#1367ce" class=""></path></g></svg>