<svg xmlns="http://www.w3.org/2000/svg" version="1.1" xmlns:xlink="http://www.w3.org/1999/xlink" width="512" height="512" x="0" y="0" viewBox="0 0 48 48" style="enable-background:new 0 0 512 512" xml:space="preserve" class=""><g><linearGradient id="a" x1="23.5" x2="23.5" y1="39.979" y2="9.275" gradientUnits="userSpaceOnUse"><stop offset="0" stop-color="#1367ce"></stop><stop offset=".994" stop-color="#00b4ff"></stop></linearGradient><linearGradient id="b" x1="22.074" x2="40.703" y1="17.074" y2="35.703" gradientUnits="userSpaceOnUse"><stop offset="0" stop-color="#6fcdfe"></stop><stop offset="1" stop-color="#26a1ec"></stop></linearGradient><path fill="url(#a)" d="M17 19v12c0 .55.45 1 1 1h10v9H11c-2.76 0-5-2.24-5-5V12c0-2.76 2.24-5 5-5h25c2.76 0 5 2.24 5 5v6H18c-.55 0-1 .45-1 1z" opacity="1" data-original="url(#a)"></path><path fill="url(#b)" d="M41 20v16c0 2.76-2.24 5-5 5h-6V31c0-.55-.45-1-1-1H19V20z" opacity="1" data-original="url(#b)"></path></g></svg>