<svg xmlns="http://www.w3.org/2000/svg" version="1.1" xmlns:xlink="http://www.w3.org/1999/xlink" width="512" height="512" x="0" y="0" viewBox="0 0 48 48" style="enable-background:new 0 0 512 512" xml:space="preserve" class=""><g><radialGradient id="a" cx="23.821" cy="7.021" r="34.748" gradientUnits="userSpaceOnUse"><stop offset=".135" stop-color="#dc33a4"></stop><stop offset=".916" stop-color="#9260f8"></stop></radialGradient><path fill="url(#a)" d="M35 10v30.23c0 .73-.38 1.38-1.01 1.74a2 2 0 0 1-2.02-.02L24 37.17l-7.97 4.78c-.32.19-.68.29-1.03.29-.34 0-.67-.09-.98-.27A1.973 1.973 0 0 1 13 40.23V10c0-2.21 1.79-4 4-4h14c2.21 0 4 1.79 4 4z" opacity="1" data-original="url(#a)"></path></g></svg>