<svg xmlns="http://www.w3.org/2000/svg" version="1.1" xmlns:xlink="http://www.w3.org/1999/xlink" width="512" height="512" x="0" y="0" viewBox="0 0 48 48" style="enable-background:new 0 0 512 512" xml:space="preserve" class=""><g><linearGradient id="a" x1="29" x2="38" y1="18.5" y2="18.5" gradientUnits="userSpaceOnUse"><stop offset="0" stop-color="#0abeb0"></stop><stop offset="1" stop-color="#0dddad"></stop></linearGradient><linearGradient xlink:href="#a" id="c" x1="23" x2="44" y1="31.5" y2="31.5"></linearGradient><linearGradient id="b" x1="18.5" x2="18.5" y1="40" y2="11.89" gradientUnits="userSpaceOnUse"><stop offset="0" stop-color="#1f7cf9"></stop><stop offset=".994" stop-color="#00b4ff"></stop></linearGradient><linearGradient xlink:href="#b" id="d" x1="19" x2="19" y1="39" y2="10.89"></linearGradient><path fill="url(#a)" d="M29 19.06v-1.12c0-2.54 1.8-4.71 4.09-4.92 1.23-.12 2.42.29 3.35 1.13a4.89 4.89 0 0 1 1.56 3.6v1.5c0 1.38-.57 2.69-1.56 3.6-.82.75-1.85 1.15-2.94 1.15-.13 0-.27-.01-.41-.02C30.8 23.77 29 21.6 29 19.06z" opacity="1" data-original="url(#a)"></path><path fill="url(#c)" d="M44 33v1c0 1.65-1.35 3-3 3H26c-1.65 0-3-1.35-3-3v-1c0-3.86 3.14-7 7-7h7c3.86 0 7 3.14 7 7z" opacity="1" data-original="url(#c)"></path><path fill="url(#b)" d="M31 35v2c0 1.65-1.35 3-3 3H9c-1.65 0-3-1.35-3-3v-2c0-4.96 4.04-9 9-9h7c4.96 0 9 4.04 9 9z" opacity="1" data-original="url(#b)"></path><path fill="url(#d)" d="M13 17.74v-1.48c0-3.23 2.4-5.97 5.47-6.24 1.7-.15 3.33.41 4.58 1.56A5.99 5.99 0 0 1 25 16v2c0 1.68-.71 3.29-1.95 4.42A5.92 5.92 0 0 1 19.01 24c-.18 0-.36-.01-.54-.02-3.07-.27-5.47-3.01-5.47-6.24z" opacity="1" data-original="url(#d)"></path></g></svg>