<svg xmlns="http://www.w3.org/2000/svg" version="1.1" xmlns:xlink="http://www.w3.org/1999/xlink" width="512" height="512" x="0" y="0" viewBox="0 0 48 48" style="enable-background:new 0 0 512 512" xml:space="preserve" class=""><g><linearGradient id="a" x1="24" x2="24" y1="42" y2="6" gradientUnits="userSpaceOnUse"><stop offset="0" stop-color="#0064e1"></stop><stop offset=".994" stop-color="#26b7ff"></stop></linearGradient><path fill="url(#a)" d="M42 24c0 5.02-2.12 9.85-5.82 13.25C32.85 40.31 28.52 42 24 42s-8.85-1.69-12.18-4.75C8.12 33.85 6 29.02 6 24c0-9.93 8.07-18 18-18 9.92 0 18 8.07 18 18z" opacity="1" data-original="url(#a)"></path><g fill="#fff"><path d="M26 23h-3.905a5.99 5.99 0 0 0-5.99 5.99l-.091 2.013c0 1.103.894 1.997 1.996 1.997h11.98a1.996 1.996 0 0 0 1.996-1.997l.092-1.925A6.078 6.078 0 0 0 26 23zM10 28.73v.72c0 .85.7 1.55 1.55 1.55h1.92c-.09-.32-.13-.65-.13-1v-.93c0-1.92.67-3.68 1.79-5.07h-.4C12.12 24 10 26.12 10 28.73zM38 28.73v.72c0 .85-.7 1.55-1.55 1.55h-1.92c.09-.32.13-.65.13-1v-.93c0-1.92-.67-3.68-1.79-5.07h.4c2.61 0 4.73 2.12 4.73 4.73z" fill="#ffffff" opacity="1" data-original="#ffffff"></path><ellipse cx="24" cy="16.5" rx="4" ry="4.5" fill="#ffffff" opacity="1" data-original="#ffffff"></ellipse><ellipse cx="32.5" cy="19" rx="2.5" ry="3" fill="#ffffff" opacity="1" data-original="#ffffff"></ellipse><ellipse cx="15.5" cy="19" rx="2.5" ry="3" fill="#ffffff" opacity="1" data-original="#ffffff"></ellipse></g></g></svg>