<svg xmlns="http://www.w3.org/2000/svg" version="1.1" xmlns:xlink="http://www.w3.org/1999/xlink" width="512" height="512" x="0" y="0" viewBox="0 0 48 48" style="enable-background:new 0 0 512 512" xml:space="preserve" class=""><g><linearGradient id="a" x1="24" x2="24" y1="34" y2="12" gradientUnits="userSpaceOnUse"><stop offset="0" stop-color="#1367ce"></stop><stop offset=".994" stop-color="#00b4ff"></stop></linearGradient><path fill="url(#a)" d="M44 23c0 6.07-4.93 11-11 11H15C8.93 34 4 29.07 4 23s4.93-11 11-11h18c6.07 0 11 4.93 11 11z" opacity="1" data-original="url(#a)"></path><g fill="#1367ce"><path d="M21 24h-4v-4h-2v4h-4v2h4v4h2v-4h4z" fill="#1367ce" opacity="1" data-original="#1367ce"></path><circle cx="29" cy="27" r="2" fill="#1367ce" opacity="1" data-original="#1367ce"></circle><circle cx="36" cy="22" r="2" fill="#1367ce" opacity="1" data-original="#1367ce"></circle></g><path fill="#ffffff" d="M21 23h-4v-4h-2v4h-4v2h4v4h2v-4h4z" opacity="1" data-original="#ffffff"></path><circle cx="29" cy="26" r="2" fill="#f3b52a" opacity="1" data-original="#f3b52a"></circle><circle cx="36" cy="21" r="2" fill="#5fd7c7" opacity="1" data-original="#5fd7c7"></circle></g></svg>