<svg xmlns="http://www.w3.org/2000/svg" version="1.1" xmlns:xlink="http://www.w3.org/1999/xlink" width="512" height="512" x="0" y="0" viewBox="0 0 22 22" style="enable-background:new 0 0 512 512" xml:space="preserve" class=""><g><path d="M17 22H5a5.006 5.006 0 0 1-5-5V5a5.006 5.006 0 0 1 5-5h12a5.006 5.006 0 0 1 5 5v12a5.006 5.006 0 0 1-5 5zM5 2a3.003 3.003 0 0 0-3 3v12a3.003 3.003 0 0 0 3 3h12a3.003 3.003 0 0 0 3-3V5a3.003 3.003 0 0 0-3-3z" fill="#000000" opacity="1" data-original="#000000" class=""></path><path d="M8 18.379a1 1 0 0 1-1-1V10.62a1 1 0 0 1 1.49-.871l6 3.379a1 1 0 0 1 0 1.742l-6 3.379a.997.997 0 0 1-.49.129zm1-6.047v3.336L11.962 14zM21 8H1a1 1 0 0 1-1-1V5a5.006 5.006 0 0 1 5-5h12a5.006 5.006 0 0 1 5 5v2a1 1 0 0 1-1 1zM2 6h18V5a3.003 3.003 0 0 0-3-3H5a3.003 3.003 0 0 0-3 3z" fill="#000000" opacity="1" data-original="#000000" class=""></path><path d="m11.873 1.595 1.61-1.186 4.418 6-1.609 1.185zM2.986 1.786 4.592.595l4.311 5.809-1.605 1.191z" fill="#000000" opacity="1" data-original="#000000" class=""></path><path d="M21 8H1a1 1 0 0 1-1-1V5a5.006 5.006 0 0 1 5-5h12a5.006 5.006 0 0 1 5 5v2a1 1 0 0 1-1 1zM2 6h18V5a3.003 3.003 0 0 0-3-3H5a3.003 3.003 0 0 0-3 3z" fill="#000000" opacity="1" data-original="#000000" class=""></path></g></svg>